<svg width="26" height="24" viewBox="0 0 26 24" fill="none" xmlns="http://www.w3.org/2000/svg">
<path d="M4.16882 9C4.16882 6.17157 4.16882 4.75736 5.08459 3.87868C6.00036 3 7.47426 3 10.4221 3H14.5909C17.5387 3 19.0126 3 19.9284 3.87868C20.8441 4.75736 20.8441 6.17157 20.8441 9V15.8276C20.8441 18.5109 20.8441 19.8525 19.9642 20.2629C19.0843 20.6733 17.9848 19.8444 15.7858 18.1866L15.0821 17.656C13.8456 16.7239 13.2274 16.2578 12.5065 16.2578C11.7856 16.2578 11.1673 16.7239 9.93089 17.656L9.22714 18.1866C7.02817 19.8444 5.92868 20.6733 5.04875 20.2629C4.16882 19.8525 4.16882 18.5109 4.16882 15.8276V9Z" fill="#222222" stroke="#222222" stroke-width="2"/>
</svg>
