<svg width="30" height="30" viewBox="0 0 30 30" fill="none" xmlns="http://www.w3.org/2000/svg">
<path d="M5 11.25C5 7.71447 5 5.9467 6.09835 4.84835C7.1967 3.75 8.96447 3.75 12.5 3.75H17.5C21.0355 3.75 22.8033 3.75 23.9017 4.84835C25 5.9467 25 7.71447 25 11.25V19.7845C25 23.1386 25 24.8157 23.9446 25.3286C22.8893 25.8416 21.5706 24.8054 18.9332 22.7332L18.0891 22.07C16.6061 20.9048 15.8647 20.3222 15 20.3222C14.1353 20.3222 13.3939 20.9048 11.9109 22.07L11.0668 22.7332C8.42943 24.8054 7.11073 25.8416 6.05537 25.3286C5 24.8157 5 23.1386 5 19.7845V11.25Z" stroke="#33363F" stroke-width="2"/>
</svg>
