<svg width="19" height="20" viewBox="0 0 19 20" fill="none" xmlns="http://www.w3.org/2000/svg">
<rect x="2.375" y="5.46387" width="14.25" height="11.875" rx="2" stroke="#33363F" stroke-width="2"/>
<path d="M2.375 8.63053C2.375 7.54187 2.375 6.99753 2.58125 6.57929C2.77598 6.18443 3.09556 5.86485 3.49042 5.67012C3.90867 5.46387 4.453 5.46387 5.54167 5.46387H13.4583C14.547 5.46387 15.0913 5.46387 15.5096 5.67012C15.9044 5.86485 16.224 6.18443 16.4187 6.57929C16.625 6.99753 16.625 7.54187 16.625 8.63053V8.63053H2.375V8.63053Z" fill="#33363F"/>
<path d="M5.54167 3.08887L5.54167 5.46387" stroke="#33363F" stroke-width="2" stroke-linecap="round"/>
<path d="M13.4583 3.08887L13.4583 5.46387" stroke="#33363F" stroke-width="2" stroke-linecap="round"/>
<rect x="5.54167" y="10.2139" width="3.16667" height="1.58333" rx="0.5" fill="#33363F"/>
<rect x="5.54167" y="13.3805" width="3.16667" height="1.58333" rx="0.5" fill="#33363F"/>
<rect x="10.2917" y="10.2139" width="3.16667" height="1.58333" rx="0.5" fill="#33363F"/>
<rect x="10.2917" y="13.3805" width="3.16667" height="1.58333" rx="0.5" fill="#33363F"/>
</svg>
