<svg width="62" height="27" viewBox="0 0 62 27" fill="none" xmlns="http://www.w3.org/2000/svg">
    <path
        d="M12.9998 2.60413C11.5772 2.60413 10.1685 2.88434 8.8541 3.42876C7.53974 3.97319 6.34548 4.77117 5.33951 5.77714C3.30787 7.80878 2.1665 10.5643 2.1665 13.4375C2.1665 18.2258 5.27567 22.2883 9.5765 23.7291C10.1182 23.8158 10.2915 23.48 10.2915 23.1875V21.3566C7.29067 22.0066 6.6515 19.905 6.6515 19.905C6.15317 18.6483 5.449 18.3125 5.449 18.3125C4.46317 17.6408 5.52484 17.6625 5.52484 17.6625C6.60817 17.7383 7.18234 18.7783 7.18234 18.7783C8.12484 20.425 9.71734 19.9375 10.3348 19.6775C10.4323 18.9733 10.714 18.4966 11.0173 18.2258C8.61234 17.955 6.08817 17.0233 6.08817 12.8958C6.08817 11.6933 6.49984 10.7291 7.204 9.95996C7.09567 9.68913 6.7165 8.56246 7.31234 7.09996C7.31234 7.09996 8.22234 6.80746 10.2915 8.20496C11.1473 7.96663 12.079 7.84746 12.9998 7.84746C13.9207 7.84746 14.8523 7.96663 15.7082 8.20496C17.7773 6.80746 18.6873 7.09996 18.6873 7.09996C19.2832 8.56246 18.904 9.68913 18.7957 9.95996C19.4998 10.7291 19.9115 11.6933 19.9115 12.8958C19.9115 17.0341 17.3765 17.9441 14.9607 18.215C15.3507 18.5508 15.7082 19.2116 15.7082 20.2191V23.1875C15.7082 23.48 15.8815 23.8266 16.434 23.7291C20.7348 22.2775 23.8332 18.2258 23.8332 13.4375C23.8332 12.0148 23.553 10.6061 23.0085 9.29172C22.4641 7.97736 21.6661 6.7831 20.6602 5.77714C19.6542 4.77117 18.4599 3.97319 17.1456 3.42876C15.8312 2.88434 14.4225 2.60413 12.9998 2.60413Z"
        fill="black" />
    <path
        d="M58.1344 14.4168V20.9103C58.116 21.6654 57.7498 22.0825 56.9937 22.1453C56.1259 22.2168 55.2538 22.2623 54.3828 22.3143C52.6278 22.4226 50.8718 22.5288 49.1168 22.6328C47.5622 22.7249 46.0076 22.8061 44.4552 22.9112C43.7683 22.9556 43.2278 22.739 42.8475 22.1496C42.7348 21.9752 42.5908 21.8181 42.4629 21.6513C41.8129 20.8128 41.1683 19.9721 40.5151 19.138C40.0767 18.5992 39.8437 17.9225 39.8575 17.2281C39.8792 13.5339 39.8662 9.84189 39.8683 6.14881C39.8683 6.00906 39.8792 5.87039 39.9008 5.73281C40.0005 5.19114 40.3363 4.85531 40.8845 4.80331C41.7815 4.71881 42.6926 4.66031 43.5972 4.59206L47.9197 4.27356C49.3042 4.17281 50.6887 4.07639 52.0732 3.96697C52.7671 3.91049 53.4572 4.11526 54.008 4.54114C55.2278 5.42622 56.4672 6.28206 57.7043 7.14547C57.8475 7.23734 57.9635 7.36586 58.0403 7.51768C58.1171 7.66951 58.1518 7.83911 58.1409 8.00889C58.129 10.1441 58.1344 12.2805 58.1344 14.4168ZM56.8756 14.5002V8.97089C56.8756 8.43789 56.6882 8.25372 56.1714 8.28406L51.6756 8.53972L46.1614 8.86256C45.5136 8.90047 44.8658 8.93839 44.2179 8.98172C43.8745 9.00556 43.7185 9.15722 43.6676 9.49414C43.6546 9.59164 43.6492 9.68914 43.6513 9.78664V20.4683C43.6513 21.2992 43.8723 21.5072 44.7065 21.4585C45.5407 21.4097 46.3738 21.3556 47.2166 21.3068L56.1422 20.7944C56.621 20.7673 56.8388 20.5561 56.8767 20.0805C56.8832 19.9971 56.8767 19.9136 56.8767 19.8248L56.8756 14.5002ZM55.5247 7.00789L55.5539 6.95264C55.4883 6.87242 55.4158 6.7981 55.3373 6.73056C54.7458 6.29831 54.1478 5.87472 53.5573 5.44897C53.1706 5.15322 52.6907 5.00481 52.2043 5.03189C51.2358 5.09039 50.2694 5.16731 49.3009 5.23772L43.0783 5.68947C42.6319 5.72197 42.1802 5.75664 41.7447 5.80864C41.6959 5.81823 41.65 5.83896 41.6105 5.86921C41.571 5.89947 41.5391 5.93843 41.5172 5.98306C41.4988 6.03614 41.5865 6.15531 41.6548 6.21056C42.1423 6.60381 42.6384 6.99056 43.1303 7.37839C43.3957 7.59939 43.7348 7.71422 44.0793 7.70014C44.2472 7.69256 44.4151 7.70014 44.5819 7.68497L49.0973 7.40764L55.0968 7.05447C55.2398 7.03822 55.3817 7.02197 55.5247 7.00789Z"
        fill="black" />
    <path
        d="M52.821 16.3495V11.3011C52.548 11.2686 52.2869 11.2307 52.0236 11.2112C51.8795 11.2004 51.846 11.1354 51.8611 11.0086C51.8756 10.8713 51.9361 10.743 52.0329 10.6446C52.1298 10.5462 52.2571 10.4836 52.3941 10.467C53.264 10.402 54.134 10.3575 54.9995 10.3055C55.1285 10.7356 54.9995 10.9469 54.5879 11.0281C54.134 11.1224 54.134 11.1224 54.134 11.5828V18.9982C54.134 19.1705 54.0885 19.2755 53.926 19.3265C53.6395 19.4335 53.3477 19.5257 53.0517 19.6027C52.5761 19.7024 52.1547 19.5702 51.872 19.1596C51.4783 18.5923 51.0937 18.0188 50.7182 17.4393C49.8472 16.0916 48.987 14.7385 48.1215 13.3876C48.1041 13.3595 48.0803 13.3324 48.0315 13.2652C48.0207 13.3584 48.011 13.4115 48.011 13.4667V18.515C48.011 18.6635 48.0586 18.7241 48.2016 18.7512C48.5223 18.814 48.8419 18.891 49.155 18.9614C49.1494 19.1186 49.0871 19.2684 48.9795 19.3832C48.872 19.4979 48.7265 19.5697 48.57 19.5854C48.3073 19.6206 48.0429 19.6423 47.778 19.6504C47.1367 19.6894 46.4954 19.7197 45.8551 19.7652C45.6677 19.7782 45.6298 19.7002 45.6623 19.5475C45.6716 19.4557 45.7096 19.3691 45.7709 19.3001C45.8321 19.2311 45.9135 19.1831 46.0035 19.1629C46.205 19.1141 46.4044 19.0502 46.6037 18.9939V11.7464L45.7056 11.6662C45.6756 11.5727 45.6675 11.4736 45.6819 11.3764C45.6963 11.2793 45.7328 11.1868 45.7885 11.106C45.8443 11.0252 45.9179 10.9582 46.0037 10.9104C46.0894 10.8625 46.185 10.835 46.283 10.8299C47.0685 10.767 47.8593 10.7432 48.6425 10.6544C48.9773 10.6175 49.1333 10.741 49.3012 11C50.4095 12.7073 51.5329 14.4081 52.652 16.11L52.821 16.3495Z"
        fill="black" />
</svg>