<svg width="23" height="25" viewBox="0 0 23 25" fill="none" xmlns="http://www.w3.org/2000/svg">
<path d="M11.5 5.07812C12.0954 5.07812 12.5781 4.55346 12.5781 3.90625C12.5781 3.25904 12.0954 2.73438 11.5 2.73438C10.9046 2.73438 10.4219 3.25904 10.4219 3.90625C10.4219 4.55346 10.9046 5.07812 11.5 5.07812Z" stroke="black" stroke-width="1.5" stroke-linecap="round" stroke-linejoin="round"/>
<path d="M11.5 13.6719C12.0954 13.6719 12.5781 13.1472 12.5781 12.5C12.5781 11.8528 12.0954 11.3281 11.5 11.3281C10.9046 11.3281 10.4219 11.8528 10.4219 12.5C10.4219 13.1472 10.9046 13.6719 11.5 13.6719Z" stroke="black" stroke-width="1.5" stroke-linecap="round" stroke-linejoin="round"/>
<path d="M11.5 22.2656C12.0954 22.2656 12.5781 21.741 12.5781 21.0938C12.5781 20.4465 12.0954 19.9219 11.5 19.9219C10.9046 19.9219 10.4219 20.4465 10.4219 21.0938C10.4219 21.741 10.9046 22.2656 11.5 22.2656Z" stroke="black" stroke-width="1.5" stroke-linecap="round" stroke-linejoin="round"/>
</svg>
