<svg width="36" height="41" viewBox="0 0 36 41" fill="none" xmlns="http://www.w3.org/2000/svg">
<path d="M20.5714 6.40625C20.5714 4.98887 19.4223 3.84375 18 3.84375C16.5777 3.84375 15.4286 4.98887 15.4286 6.40625V17.9375H3.85713C2.43481 17.9375 1.28571 19.0826 1.28571 20.5C1.28571 21.9174 2.43481 23.0625 3.85713 23.0625H15.4286V34.5938C15.4286 36.0111 16.5777 37.1562 18 37.1562C19.4223 37.1562 20.5714 36.0111 20.5714 34.5938V23.0625H32.1429C33.5652 23.0625 34.7143 21.9174 34.7143 20.5C34.7143 19.0826 33.5652 17.9375 32.1429 17.9375H20.5714V6.40625Z" fill="black"/>
</svg>
