<svg width="21" height="21" viewBox="0 0 21 21" fill="none" xmlns="http://www.w3.org/2000/svg">
<path d="M17.4639 17.7549L14.6306 14.9299C15.5447 13.7653 16.0407 12.3271 16.0389 10.8466C16.0389 9.52806 15.6479 8.23913 14.9154 7.1428C14.1828 6.04647 13.1416 5.19199 11.9235 4.6874C10.7053 4.18282 9.36484 4.0508 8.07163 4.30803C6.77843 4.56527 5.59054 5.20021 4.65819 6.13256C3.72584 7.06491 3.0909 8.25279 2.83367 9.546C2.57643 10.8392 2.70845 12.1796 3.21304 13.3978C3.71762 14.616 4.57211 15.6572 5.66843 16.3897C6.76476 17.1223 8.05369 17.5133 9.37224 17.5133C10.8528 17.5151 12.2909 17.0191 13.4556 16.1049L16.2806 18.9383C16.358 19.0164 16.4502 19.0784 16.5518 19.1207C16.6533 19.163 16.7622 19.1848 16.8722 19.1848C16.9822 19.1848 17.0912 19.163 17.1927 19.1207C17.2943 19.0784 17.3864 19.0164 17.4639 18.9383C17.542 18.8608 17.604 18.7686 17.6463 18.6671C17.6886 18.5655 17.7104 18.4566 17.7104 18.3466C17.7104 18.2366 17.6886 18.1277 17.6463 18.0261C17.604 17.9246 17.542 17.8324 17.4639 17.7549ZM4.37224 10.8466C4.37224 9.85769 4.66548 8.891 5.21489 8.06875C5.76429 7.2465 6.54519 6.60564 7.45882 6.2272C8.37245 5.84877 9.37778 5.74975 10.3477 5.94267C11.3176 6.1356 12.2085 6.6118 12.9078 7.31107C13.607 8.01033 14.0832 8.90124 14.2762 9.87115C14.4691 10.8411 14.3701 11.8464 13.9916 12.76C13.6132 13.6736 12.9723 14.4545 12.1501 15.0039C11.3278 15.5534 10.3611 15.8466 9.37224 15.8466C8.04615 15.8466 6.77438 15.3198 5.8367 14.3821C4.89902 13.4445 4.37224 12.1727 4.37224 10.8466Z" fill="#1E1E1E"/>
</svg>
