<svg width="9" height="6" viewBox="0 0 9 6" fill="none" xmlns="http://www.w3.org/2000/svg">
<path d="M3.88156 5L2.90125 5.19744L3.06288 6H3.88156V5ZM7.72015 3.90415L8.66262 3.56986L7.72015 3.90415ZM1.78076 1.71053L1.1759 0.914199L0.0193448 1.79267L1.25263 2.5597L1.78076 1.71053ZM6.86716 4H3.88156V6H6.86716V4ZM6.77768 4.23844C6.77063 4.21858 6.76415 4.18101 6.77246 4.13536C6.78034 4.09212 6.79819 4.05933 6.81508 4.0383C6.84731 3.9982 6.87394 4 6.86716 4V6C8.01317 6 9.1413 4.91944 8.66262 3.56986L6.77768 4.23844ZM3.99995 2C5.64154 2 6.40264 3.18107 6.77768 4.23844L8.66262 3.56986C8.19758 2.25875 6.94847 0 3.99995 0V2ZM2.38562 2.50687C2.77009 2.21484 3.28192 2 3.99995 2V0C2.83805 0 1.90271 0.362152 1.1759 0.914199L2.38562 2.50687ZM1.25263 2.5597C2.29178 3.20598 2.72703 4.33241 2.90125 5.19744L4.86188 4.80256C4.64392 3.72035 4.03735 1.93637 2.30889 0.861369L1.25263 2.5597Z" fill="#33363F"/>
</svg>
