<svg width="12" height="8" viewBox="0 0 12 8" fill="none" xmlns="http://www.w3.org/2000/svg">
<path d="M5.10208 6.5L4.12176 6.69744L4.2834 7.5H5.10208V6.5ZM9.99065 5.40002L9.03694 5.70075L9.03694 5.70076L9.99065 5.40002ZM2.47607 2.38817L1.87122 1.59183L0.714658 2.4703L1.94794 3.23733L2.47607 2.38817ZM9.11727 5.5H5.10208V7.5H9.11727V5.5ZM9.03694 5.70076C9.03186 5.68463 9.02732 5.65315 9.0351 5.61484C9.04245 5.57864 9.05776 5.55107 9.07236 5.53316C9.10064 5.49848 9.12412 5.5 9.11727 5.5V7.5C10.2764 7.5 11.3627 6.42583 10.9444 5.09929L9.03694 5.70076ZM5.25006 2.5C7.60034 2.5 8.60282 4.32403 9.03694 5.70075L10.9444 5.09929C10.4501 3.53181 8.99714 0.5 5.25006 0.5V2.5ZM3.08093 3.1845C3.60431 2.78697 4.29704 2.5 5.25006 2.5V0.5C3.85317 0.5 2.73693 0.934276 1.87122 1.59183L3.08093 3.1845ZM1.94794 3.23733C3.33304 4.09878 3.89852 5.589 4.12176 6.69744L6.08239 6.30256C5.81541 4.97695 5.07862 2.82917 3.0042 1.539L1.94794 3.23733Z" fill="#33363F"/>
</svg>
