<svg width="12" height="8" viewBox="0 0 12 8" fill="none" xmlns="http://www.w3.org/2000/svg">
<path d="M9.52408 2.38815L10.0522 3.23732L11.2855 2.47028L10.1289 1.59181L9.52408 2.38815ZM2.00951 5.40002L1.0558 5.09928L2.00951 5.40002ZM6.89805 6.5V7.5H7.71673L7.87837 6.69744L6.89805 6.5ZM6.75013 2.5C7.70313 2.5 8.39586 2.78696 8.91923 3.18449L10.1289 1.59181C9.26323 0.934266 8.147 0.5 6.75013 0.5V2.5ZM2.96321 5.70076C3.39735 4.32403 4.39985 2.5 6.75013 2.5V0.5C3.00306 0.5 1.55009 3.5318 1.0558 5.09928L2.96321 5.70076ZM2.88289 5.5C2.87604 5.5 2.89952 5.49848 2.9278 5.53316C2.9424 5.55107 2.95771 5.57864 2.96506 5.61484C2.97284 5.65315 2.9683 5.68463 2.96321 5.70076L1.0558 5.09928C0.637493 6.42582 1.72376 7.5 2.88289 7.5V5.5ZM6.89805 5.5H2.88289V7.5H6.89805V5.5ZM7.87837 6.69744C8.10161 5.589 8.6671 4.09876 10.0522 3.23732L8.99596 1.53898C6.92152 2.82914 6.18472 4.97694 5.91774 6.30256L7.87837 6.69744Z" fill="#33363F"/>
</svg>
