<svg width="9" height="6" viewBox="0 0 9 6" fill="none" xmlns="http://www.w3.org/2000/svg">
<path d="M7.21924 1.71052L7.74736 2.55969L8.98067 1.79265L7.82409 0.914181L7.21924 1.71052ZM1.27986 3.90415L2.22233 4.23844L2.22233 4.23844L1.27986 3.90415ZM5.11841 5V6H5.93709L6.09873 5.19744L5.11841 5ZM5.00008 2C5.71809 2 6.22992 2.21484 6.61439 2.50686L7.82409 0.914181C7.09729 0.362143 6.16196 0 5.00008 0V2ZM2.22233 4.23844C2.59738 3.18108 3.35849 2 5.00008 2V0C2.05157 0 0.802444 2.25874 0.337392 3.56985L2.22233 4.23844ZM2.13284 4C2.12606 4 2.1527 3.9982 2.18492 4.0383C2.20182 4.05933 2.21967 4.09212 2.22754 4.13536C2.23586 4.18101 2.22937 4.21859 2.22233 4.23844L0.337392 3.56985C-0.141304 4.91943 0.986831 6 2.13284 6V4ZM5.11841 4H2.13284V6H5.11841V4ZM6.09873 5.19744C6.27295 4.3324 6.7082 3.20597 7.74736 2.55969L6.69112 0.861351C4.96263 1.93635 4.35606 3.72035 4.1381 4.80256L6.09873 5.19744Z" fill="#33363F"/>
</svg>
