<svg width="319" height="32" viewBox="0 0 319 32" fill="none" xmlns="http://www.w3.org/2000/svg">
<path d="M12.6296 12.9095C12.6296 12.5828 12.7252 12.2633 12.9043 11.9916C13.0833 11.7199 13.3379 11.5082 13.6356 11.3831C13.9334 11.2581 14.2611 11.2253 14.5772 11.2891C14.8933 11.3528 15.1837 11.5102 15.4116 11.7413C15.6395 11.9723 15.7947 12.2667 15.8576 12.5872C15.9205 12.9077 15.8882 13.2399 15.7648 13.5418C15.6415 13.8437 15.4326 14.1017 15.1646 14.2833C14.8966 14.4648 14.5816 14.5617 14.2593 14.5617C13.8271 14.5617 13.4126 14.3876 13.1069 14.0778C12.8013 13.7679 12.6296 13.3477 12.6296 12.9095ZM22 8.77908V23.6486C22 24.1964 21.7854 24.7217 21.4034 25.109C21.0213 25.4963 20.5032 25.7139 19.963 25.7139H2.03704C1.49678 25.7139 0.978653 25.4963 0.596634 25.109C0.214616 24.7217 0 24.1964 0 23.6486V8.77908C0 8.23135 0.214616 7.70606 0.596634 7.31876C0.978653 6.93145 1.49678 6.71387 2.03704 6.71387H19.963C20.5032 6.71387 21.0213 6.93145 21.4034 7.31876C21.7854 7.70606 22 8.23135 22 8.77908ZM2.44444 9.19213V17.4241L5.89315 13.9277C6.27515 13.5405 6.79318 13.323 7.33333 13.323C7.87348 13.323 8.39152 13.5405 8.77352 13.9277L12.9668 18.1758L14.7166 16.4028C15.0986 16.0157 15.6166 15.7982 16.1568 15.7982C16.6969 15.7982 17.2149 16.0157 17.5969 16.4028L19.5556 18.3916V9.19213H2.44444ZM2.44444 23.2356H14.4976L7.33333 15.9722L2.44444 20.9288V23.2356ZM19.5556 23.2356V21.8932L16.1568 18.4474L14.6952 19.9313L17.9544 23.2356H19.5556Z" fill="black"/>
<path d="M60.1 8.11386V25.6639H66.229C68.0785 25.6639 69.55 25.2184 70.63 24.3139C71.71 23.4229 72.25 22.1809 72.25 20.5744C72.25 19.4404 72.0205 18.5359 71.5615 17.8609C71.1025 17.1859 70.3465 16.7134 69.307 16.4704V16.3489C70.0765 16.2139 70.684 15.8089 71.143 15.1339C71.602 14.4589 71.8315 13.6084 71.8315 12.5554C71.8315 11.0164 71.305 9.88236 70.252 9.18036C69.2125 8.46486 67.525 8.11386 65.203 8.11386H60.1ZM63.5695 15.0664V11.1649H65.4055C66.391 11.1649 67.12 11.3134 67.579 11.5969C68.038 11.8939 68.2675 12.3799 68.2675 13.0414C68.2675 13.7704 68.0515 14.2834 67.633 14.5939C67.2145 14.9044 66.526 15.0664 65.5945 15.0664H63.5695ZM63.5695 18.0229H65.7295C67.6735 18.0229 68.6455 18.7384 68.6455 20.1964C68.6455 21.0064 68.416 21.6139 67.957 22.0054C67.498 22.3969 66.796 22.5859 65.8375 22.5859H63.5695V18.0229Z" fill="black"/>
<path d="M118.75 8.21387H127.254C127.444 8.21393 127.627 8.28611 127.766 8.41584C127.905 8.54557 127.989 8.72317 128.002 8.91275C128.015 9.10233 127.955 9.28976 127.836 9.43717C127.716 9.58457 127.544 9.68097 127.356 9.70687L127.254 9.71287H124.057L119.037 22.7139H123.25C123.431 22.7141 123.606 22.7799 123.742 22.899C123.879 23.0181 123.967 23.1825 123.992 23.3619L123.999 23.4639C123.999 23.6451 123.933 23.8202 123.814 23.9568C123.695 24.0934 123.531 24.1822 123.351 24.2069L123.25 24.2139H113.75C113.652 24.2137 113.554 24.1942 113.464 24.1564C113.373 24.1186 113.291 24.0633 113.221 23.9937C113.152 23.924 113.097 23.8413 113.06 23.7504C113.023 23.6595 113.004 23.5621 113.004 23.4639C113.004 23.0839 113.284 22.7699 113.649 22.7209L113.75 22.7139H117.435L117.456 22.6489L122.45 9.71287H118.75C118.569 9.71262 118.394 9.64687 118.258 9.52777C118.121 9.40867 118.033 9.24425 118.008 9.06487L118 8.96387C118 8.78263 118.066 8.60753 118.185 8.47094C118.304 8.33435 118.468 8.24552 118.648 8.22087L118.75 8.21387Z" fill="black"/>
<path d="M182.249 21.1807C182.11 21.2467 181.959 21.2845 181.804 21.292C181.65 21.2995 181.496 21.2765 181.351 21.2244C181.206 21.1722 181.073 21.0919 180.959 20.988C180.844 20.8842 180.752 20.7588 180.687 20.6191L179.168 17.3857H171.832L170.311 20.6191C170.178 20.9004 169.94 21.1176 169.647 21.2229C169.355 21.3282 169.032 21.313 168.751 21.1807C168.47 21.0483 168.253 20.8097 168.147 20.5172C168.042 20.2247 168.057 19.9024 168.189 19.6211L174.439 6.33985C174.534 6.13853 174.684 5.9683 174.872 5.84906C175.06 5.72982 175.278 5.6665 175.5 5.6665C175.722 5.6665 175.94 5.72982 176.128 5.84906C176.316 5.9683 176.466 6.13853 176.561 6.33985L182.811 19.6211C182.876 19.7604 182.914 19.9112 182.921 20.0649C182.928 20.2187 182.905 20.3724 182.853 20.5172C182.801 20.662 182.721 20.7952 182.617 20.909C182.513 21.0229 182.388 21.1152 182.249 21.1807ZM175.5 9.59083L172.935 15.042H178.065L175.5 9.59083ZM165.734 24.8076C165.734 25.1184 165.858 25.4165 166.078 25.6363C166.297 25.856 166.595 25.9795 166.906 25.9795H184.094C184.405 25.9795 184.703 25.856 184.922 25.6363C185.142 25.4165 185.266 25.1184 185.266 24.8076C185.266 24.4968 185.142 24.1988 184.922 23.979C184.703 23.7592 184.405 23.6357 184.094 23.6357H166.906C166.595 23.6357 166.297 23.7592 166.078 23.979C165.858 24.1988 165.734 24.4968 165.734 24.8076Z" fill="black"/>
<path fill-rule="evenodd" clip-rule="evenodd" d="M259.75 24.9326C259.75 24.6757 259.852 24.4293 260.034 24.2476C260.215 24.0659 260.462 23.9639 260.719 23.9639H274.281C274.538 23.9639 274.785 24.0659 274.966 24.2476C275.148 24.4293 275.25 24.6757 275.25 24.9326C275.25 25.1895 275.148 25.436 274.966 25.6176C274.785 25.7993 274.538 25.9014 274.281 25.9014H260.719C260.462 25.9014 260.215 25.7993 260.034 25.6176C259.852 25.436 259.75 25.1895 259.75 24.9326ZM255.875 19.1201C255.875 18.8632 255.977 18.6168 256.159 18.4351C256.34 18.2534 256.587 18.1514 256.844 18.1514H278.156C278.413 18.1514 278.66 18.2534 278.841 18.4351C279.023 18.6168 279.125 18.8632 279.125 19.1201C279.125 19.377 279.023 19.6235 278.841 19.8051C278.66 19.9868 278.413 20.0889 278.156 20.0889H256.844C256.587 20.0889 256.34 19.9868 256.159 19.8051C255.977 19.6235 255.875 19.377 255.875 19.1201ZM259.75 13.3076C259.75 13.0507 259.852 12.8043 260.034 12.6226C260.215 12.4409 260.462 12.3389 260.719 12.3389H274.281C274.538 12.3389 274.785 12.4409 274.966 12.6226C275.148 12.8043 275.25 13.0507 275.25 13.3076C275.25 13.5645 275.148 13.811 274.966 13.9926C274.785 14.1743 274.538 14.2764 274.281 14.2764H260.719C260.462 14.2764 260.215 14.1743 260.034 13.9926C259.852 13.811 259.75 13.5645 259.75 13.3076ZM255.875 7.49512C255.875 7.23819 255.977 6.99178 256.159 6.81011C256.34 6.62843 256.587 6.52637 256.844 6.52637H278.156C278.413 6.52637 278.66 6.62843 278.841 6.81011C279.023 6.99178 279.125 7.23819 279.125 7.49512C279.125 7.75205 279.023 7.99845 278.841 8.18013C278.66 8.3618 278.413 8.46387 278.156 8.46387H256.844C256.587 8.46387 256.34 8.3618 256.159 8.18013C255.977 7.99845 255.875 7.75205 255.875 7.49512Z" fill="black"/>
<path d="M218 7.71387H240M218 13.7139H232M218 19.7139H240M218 25.7139H232" stroke="black" stroke-width="2" stroke-linecap="round" stroke-linejoin="round"/>
<path fill-rule="evenodd" clip-rule="evenodd" d="M303 25.7139C303 25.4487 303.105 25.1943 303.293 25.0068C303.48 24.8192 303.735 24.7139 304 24.7139H318C318.265 24.7139 318.52 24.8192 318.707 25.0068C318.895 25.1943 319 25.4487 319 25.7139C319 25.9791 318.895 26.2334 318.707 26.421C318.52 26.6085 318.265 26.7139 318 26.7139H304C303.735 26.7139 303.48 26.6085 303.293 26.421C303.105 26.2334 303 25.9791 303 25.7139ZM295 19.7139C295 19.4487 295.105 19.1943 295.293 19.0068C295.48 18.8192 295.735 18.7139 296 18.7139H318C318.265 18.7139 318.52 18.8192 318.707 19.0068C318.895 19.1943 319 19.4487 319 19.7139C319 19.9791 318.895 20.2334 318.707 20.421C318.52 20.6085 318.265 20.7139 318 20.7139H296C295.735 20.7139 295.48 20.6085 295.293 20.421C295.105 20.2334 295 19.9791 295 19.7139ZM303 13.7139C303 13.4487 303.105 13.1943 303.293 13.0068C303.48 12.8192 303.735 12.7139 304 12.7139H318C318.265 12.7139 318.52 12.8192 318.707 13.0068C318.895 13.1943 319 13.4487 319 13.7139C319 13.9791 318.895 14.2334 318.707 14.421C318.52 14.6085 318.265 14.7139 318 14.7139H304C303.735 14.7139 303.48 14.6085 303.293 14.421C303.105 14.2334 303 13.9791 303 13.7139ZM295 7.71387C295 7.44865 295.105 7.1943 295.293 7.00676C295.48 6.81922 295.735 6.71387 296 6.71387H318C318.265 6.71387 318.52 6.81922 318.707 7.00676C318.895 7.1943 319 7.44865 319 7.71387C319 7.97908 318.895 8.23344 318.707 8.42097C318.52 8.60851 318.265 8.71387 318 8.71387H296C295.735 8.71387 295.48 8.60851 295.293 8.42097C295.105 8.23344 295 7.97908 295 7.71387Z" fill="black"/>
</svg>
